<svg id="Ebene_1" data-name="Ebene 1" xmlns="http://www.w3.org/2000/svg" xmlns:xlink="http://www.w3.org/1999/xlink" viewBox="0 0 121.42 38.81"><defs><style>.cls-1{fill:none;}.cls-2{clip-path:url(#clip-path);}.cls-3{fill:#575756;}.cls-4{fill:#1d1d1b;}.cls-5{fill:#bdbcbc;}.cls-6{fill:#4a4a49;}</style><clipPath id="clip-path" transform="translate(-200.96 -394.08)"><rect class="cls-1" x="197" y="394.08" width="125.39" height="38.81"/></clipPath></defs><title>praeziese_logo</title><g class="cls-2"><path class="cls-3" d="M241.74,404.24v1.31a5.47,5.47,0,0,1-1.36,3.88,5.39,5.39,0,0,1-4.13,1.46,8.19,8.19,0,0,1-1.62-.15,4.12,4.12,0,0,1-1.37-.52,2.66,2.66,0,0,1-.94-1,3.1,3.1,0,0,1-.35-1.54,2.44,2.44,0,0,1,.75-1.88,4.78,4.78,0,0,1,2-1,13.89,13.89,0,0,1,2.88-.44q1.63-.1,3.36-0.1h0.77Zm2.54-2.08a5.55,5.55,0,0,1,.54-2.21,6.91,6.91,0,0,1,1.31-1.89,6.14,6.14,0,0,1,1.87-1.31,5.38,5.38,0,0,1,2.25-.48,5.16,5.16,0,0,1,4.08,1.65,6.15,6.15,0,0,1,1.46,4.23h-11.5Zm13.63-2.62a8.1,8.1,0,0,0-1.56-2.83,7.49,7.49,0,0,0-2.58-1.92,8.33,8.33,0,0,0-3.54-.71,7.82,7.82,0,0,0-3.94,1,8,8,0,0,0-2.86,2.75,5.34,5.34,0,0,0-2.21-2.79,6.82,6.82,0,0,0-3.71-1,12,12,0,0,0-4.29.75,9.07,9.07,0,0,0-3.13,1.87l1.5,1.69a8,8,0,0,1,2.48-1.54,8.14,8.14,0,0,1,3.06-.58,4.11,4.11,0,0,1,3.48,1.48,6.12,6.12,0,0,1,1.13,3.83v0.58q-2.31,0-4.56.15a17.09,17.09,0,0,0-4,.71,6.64,6.64,0,0,0-2.83,1.67,4.19,4.19,0,0,0-1.08,3,4.85,4.85,0,0,0,.58,2.46,4.76,4.76,0,0,0,1.5,1.61,6.56,6.56,0,0,0,2.1.9,9.67,9.67,0,0,0,2.33.29,13.59,13.59,0,0,0,2.31-.19,7.75,7.75,0,0,0,2.1-.67,6.38,6.38,0,0,0,1.77-1.29,6.74,6.74,0,0,0,1.33-2,6.74,6.74,0,0,0,2.75,3.08,8.42,8.42,0,0,0,4.4,1.11,9.13,9.13,0,0,0,4-.89,9.41,9.41,0,0,0,3.38-2.92l-1.89-1.5a6.86,6.86,0,0,1-2.13,2.17,5.9,5.9,0,0,1-3.37.94,5.8,5.8,0,0,1-2.44-.52,6.34,6.34,0,0,1-3.31-3.5,7.43,7.43,0,0,1-.52-2.56h14.23a4.18,4.18,0,0,0,0-.58V403a11.25,11.25,0,0,0-.52-3.46" transform="translate(-200.96 -394.08)"/><path class="cls-4" d="M318.25,424.82v-0.38c0-.15,0-0.3,0-0.46s0-.31,0-0.45,0-.26,0-0.35h-0.3c0,0.09,0,.21,0,0.35s0,0.29,0,.45,0,0.31,0,.46,0,0.28,0,.38v4.85h0.29v-3.76a4.15,4.15,0,0,1,.11-0.92,3.27,3.27,0,0,1,.32-0.87,2,2,0,0,1,.54-0.64,1.2,1.2,0,0,1,.75-0.25,1,1,0,0,1,.65.2,1.32,1.32,0,0,1,.38.52,2.42,2.42,0,0,1,.17.69,6.78,6.78,0,0,1,0,.72v4.3h0.3v-4.3a7.34,7.34,0,0,0,0-.8,2.57,2.57,0,0,0-.21-0.78,1.54,1.54,0,0,0-.46-0.59A1.32,1.32,0,0,0,320,423a1.42,1.42,0,0,0-1.11.5,2.69,2.69,0,0,0-.59,1.35h0Zm-3,2.87a4,4,0,0,1-.32,1,1.81,1.81,0,0,1-.53.67,1.22,1.22,0,0,1-.75.24,1.2,1.2,0,0,1-.75-0.25,1.86,1.86,0,0,1-.53-0.68,3.79,3.79,0,0,1-.31-1,7.29,7.29,0,0,1-.1-1.25,7.5,7.5,0,0,1,.1-1.27,3.81,3.81,0,0,1,.31-1,1.88,1.88,0,0,1,.53-0.68,1.2,1.2,0,0,1,.75-0.25,1.17,1.17,0,0,1,.74.25,1.91,1.91,0,0,1,.54.69,3.93,3.93,0,0,1,.32,1,7.08,7.08,0,0,1,.11,1.27,6.9,6.9,0,0,1-.11,1.25m0.09,0.44v1.19a12.3,12.3,0,0,1-.07,1.36,3.69,3.69,0,0,1-.25,1,1.54,1.54,0,0,1-.5.67,1.4,1.4,0,0,1-.85.24,1.43,1.43,0,0,1-.92-0.32,2,2,0,0,1-.61-0.85l-0.24.19a1.88,1.88,0,0,0,.7.91,1.84,1.84,0,0,0,1.07.34,1.78,1.78,0,0,0,1-.26,1.68,1.68,0,0,0,.6-0.74,3.91,3.91,0,0,0,.28-1.13,12.8,12.8,0,0,0,.07-1.43v-6.15h-0.29v1.52h0a2.69,2.69,0,0,0-.6-1.26,1.4,1.4,0,0,0-1.07-.47,1.5,1.5,0,0,0-.86.26,2,2,0,0,0-.62.72,4,4,0,0,0-.38,1.09,7,7,0,0,0-.13,1.4,6.78,6.78,0,0,0,.13,1.39,3.91,3.91,0,0,0,.39,1.1,2.07,2.07,0,0,0,.62.71,1.44,1.44,0,0,0,.84.26,1.38,1.38,0,0,0,1.1-.49,2.74,2.74,0,0,0,.58-1.26h0Zm-5.52-5h-0.29v6.49h0.29v-6.49Zm0.06-2.11a0.39,0.39,0,0,0,0-.52,0.29,0.29,0,0,0-.21-0.1,0.29,0.29,0,0,0-.22.1,0.35,0.35,0,0,0-.09.25,0.36,0.36,0,0,0,.09.27,0.29,0.29,0,0,0,.22.09,0.3,0.3,0,0,0,.21-0.09m-2.24,6.22a1.58,1.58,0,0,0-.32-0.5,2,2,0,0,0-.45-0.35l-0.49-.25a3.13,3.13,0,0,1-.47-0.23,1.33,1.33,0,0,1-.34-0.29,1.15,1.15,0,0,1-.21-0.4,1.93,1.93,0,0,1-.07-0.57,1.62,1.62,0,0,1,.34-1,1,1,0,0,1,.83-0.42,1.23,1.23,0,0,1,1.17.81l0.21-.15a1.69,1.69,0,0,0-.53-0.67,1.39,1.39,0,0,0-.85-0.26,1.23,1.23,0,0,0-.57.14,1.47,1.47,0,0,0-.46.38,1.82,1.82,0,0,0-.32.56,2,2,0,0,0-.11.68,2.15,2.15,0,0,0,.09.66,1.55,1.55,0,0,0,.24.47,1.41,1.41,0,0,0,.36.34,2.4,2.4,0,0,0,.45.23l0.44,0.2a1.82,1.82,0,0,1,.44.28,1.38,1.38,0,0,1,.34.45,1.58,1.58,0,0,1,.13.69,1.85,1.85,0,0,1-.33,1.15,1,1,0,0,1-.88.43,1.42,1.42,0,0,1-1.36-1l-0.21.16a1.56,1.56,0,0,0,1.56,1.1,1.32,1.32,0,0,0,1.12-.52,2.19,2.19,0,0,0,.4-1.36,1.89,1.89,0,0,0-.12-0.71M300,426.08a5.12,5.12,0,0,1,.09-0.86,3.77,3.77,0,0,1,.3-0.95,2.46,2.46,0,0,1,.54-0.76,1.14,1.14,0,0,1,.81-0.31,1.21,1.21,0,0,1,.71.21,1.57,1.57,0,0,1,.5.59,3.33,3.33,0,0,1,.3.9,6.28,6.28,0,0,1,.1,1.17H300Zm3.6,0.27V426a6.82,6.82,0,0,0-.09-1.15,3.21,3.21,0,0,0-.32-1,1.87,1.87,0,0,0-.58-0.67,1.63,1.63,0,0,0-1.75,0,2.09,2.09,0,0,0-.63.72,3.94,3.94,0,0,0-.39,1.1,6.64,6.64,0,0,0-.13,1.38,6.86,6.86,0,0,0,.13,1.42,3.66,3.66,0,0,0,.4,1.09,2,2,0,0,0,.65.7,1.6,1.6,0,0,0,.89.25,1.46,1.46,0,0,0,1.05-.39,2.36,2.36,0,0,0,.6-0.9l-0.21-.12a2.32,2.32,0,0,1-.53.81,1.24,1.24,0,0,1-.91.34,1.31,1.31,0,0,1-.8-0.24,1.88,1.88,0,0,1-.55-0.67,3.53,3.53,0,0,1-.32-1,8,8,0,0,1-.1-1.32h3.6Zm-6.12,1.32a4,4,0,0,1-.32,1,1.88,1.88,0,0,1-.53.68,1.26,1.26,0,0,1-1.51,0,1.88,1.88,0,0,1-.53-0.68,3.8,3.8,0,0,1-.31-1,7.32,7.32,0,0,1-.1-1.25,7.52,7.52,0,0,1,.1-1.27,3.81,3.81,0,0,1,.31-1,1.88,1.88,0,0,1,.53-0.68,1.2,1.2,0,0,1,.75-0.25,1.18,1.18,0,0,1,.74.25,1.92,1.92,0,0,1,.54.68,3.84,3.84,0,0,1,.32,1,7.11,7.11,0,0,1,.11,1.27,6.92,6.92,0,0,1-.11,1.25m-0.5,1.72a2.74,2.74,0,0,0,.58-1.26h0v1.53h0.3V419.51h-0.3v5.18h0a2.69,2.69,0,0,0-.6-1.26,1.4,1.4,0,0,0-1.07-.47,1.5,1.5,0,0,0-.86.26,2,2,0,0,0-.62.72,4,4,0,0,0-.38,1.09,7,7,0,0,0-.13,1.4,6.78,6.78,0,0,0,.13,1.39,3.91,3.91,0,0,0,.39,1.1,2.07,2.07,0,0,0,.62.71,1.44,1.44,0,0,0,.84.26,1.38,1.38,0,0,0,1.09-.49m-4.52-2.1a1.57,1.57,0,0,0-.32-0.5,2,2,0,0,0-.45-0.35l-0.49-.25a3.17,3.17,0,0,1-.47-0.23,1.33,1.33,0,0,1-.34-0.29,1.16,1.16,0,0,1-.22-0.4,1.93,1.93,0,0,1-.07-0.57,1.62,1.62,0,0,1,.33-1,1,1,0,0,1,.83-0.42,1.23,1.23,0,0,1,1.17.81l0.22-.15a1.68,1.68,0,0,0-.53-0.67,1.39,1.39,0,0,0-.85-0.26,1.23,1.23,0,0,0-.57.14,1.48,1.48,0,0,0-.46.38,1.85,1.85,0,0,0-.32.56,2,2,0,0,0-.11.68,2.15,2.15,0,0,0,.09.66,1.57,1.57,0,0,0,.24.47,1.41,1.41,0,0,0,.36.34,2.37,2.37,0,0,0,.45.23l0.44,0.2a1.8,1.8,0,0,1,.44.28,1.37,1.37,0,0,1,.34.45,1.56,1.56,0,0,1,.13.69,1.85,1.85,0,0,1-.33,1.15,1,1,0,0,1-.88.43,1.42,1.42,0,0,1-1.36-1l-0.22.16a1.56,1.56,0,0,0,1.56,1.1,1.32,1.32,0,0,0,1.12-.52,2.19,2.19,0,0,0,.4-1.36,1.87,1.87,0,0,0-.12-0.71m-7.79-2.47v-0.38c0-.15,0-0.3,0-0.46s0-.31,0-0.45,0-.26,0-0.35h-0.3c0,0.09,0,.21,0,0.35s0,0.29,0,.45,0,0.31,0,.46,0,0.28,0,.38v4.85h0.3v-3.76a4.15,4.15,0,0,1,.11-0.92,3.3,3.3,0,0,1,.32-0.87,2,2,0,0,1,.54-0.64,1.2,1.2,0,0,1,.75-0.25,1,1,0,0,1,.65.2,1.33,1.33,0,0,1,.38.52,2.45,2.45,0,0,1,.17.69,6.78,6.78,0,0,1,0,.72v4.3H288v-4.3a7.34,7.34,0,0,0,0-.8,2.6,2.6,0,0,0-.21-0.78,1.55,1.55,0,0,0-.46-0.59,1.31,1.31,0,0,0-.82-0.23,1.42,1.42,0,0,0-1.11.5,2.7,2.7,0,0,0-.59,1.35h0Zm-2.55,2.86a3.69,3.69,0,0,1-.33,1,2,2,0,0,1-.54.68,1.2,1.2,0,0,1-.75.25,1.22,1.22,0,0,1-.76-0.25,1.9,1.9,0,0,1-.54-0.68,3.8,3.8,0,0,1-.32-1,6.83,6.83,0,0,1-.11-1.25,7,7,0,0,1,.11-1.27,3.8,3.8,0,0,1,.32-1,1.9,1.9,0,0,1,.54-0.68,1.22,1.22,0,0,1,.76-0.25,1.2,1.2,0,0,1,.74.25,1.9,1.9,0,0,1,.54.68,4,4,0,0,1,.33,1,6.65,6.65,0,0,1,.11,1.27,6.92,6.92,0,0,1-.11,1.25m0.26-2.64a4,4,0,0,0-.4-1.09,2.1,2.1,0,0,0-.64-0.72,1.48,1.48,0,0,0-.85-0.26,1.53,1.53,0,0,0-.87.26,2,2,0,0,0-.64.72,4,4,0,0,0-.39,1.09,6.75,6.75,0,0,0-.13,1.4,6.43,6.43,0,0,0,.14,1.39,3.87,3.87,0,0,0,.4,1.1,2.11,2.11,0,0,0,.64.71,1.53,1.53,0,0,0,1.69,0,2.12,2.12,0,0,0,.64-0.71,3.91,3.91,0,0,0,.4-1.1,7,7,0,0,0,0-2.79m-5.76-1.85h-0.29v6.49h0.29v-6.49Zm0.06-2.11a0.39,0.39,0,0,0,0-.52,0.29,0.29,0,0,0-.21-0.1,0.29,0.29,0,0,0-.22.1,0.35,0.35,0,0,0-.09.25,0.36,0.36,0,0,0,.09.27,0.29,0.29,0,0,0,.22.09,0.3,0.3,0,0,0,.21-0.09m-1.66,8.54-0.07-.24a0.67,0.67,0,0,1-.25.11l-0.26,0a0.56,0.56,0,0,1-.54-0.3,2.18,2.18,0,0,1-.15-1v-4.8H275v-0.27h-1.18v-1.91h-0.3v1.91h-0.87v0.27h0.87v4.79a4.83,4.83,0,0,0,0,.6,1.34,1.34,0,0,0,.14.48,0.81,0.81,0,0,0,.29.32,0.91,0.91,0,0,0,.49.11,1.49,1.49,0,0,0,.62-0.13m-4-2.87a6.75,6.75,0,0,1-.07,1,3.42,3.42,0,0,1-.26.92,1.91,1.91,0,0,1-.5.68,1.17,1.17,0,0,1-.78.26,1.12,1.12,0,0,1-.81-0.36,1.47,1.47,0,0,1-.29-0.49,2.13,2.13,0,0,1-.11-0.74,2,2,0,0,1,.2-1,1.54,1.54,0,0,1,.52-0.56,1.89,1.89,0,0,1,.7-0.27,4.28,4.28,0,0,1,.75-0.07h0.66v0.63Zm0.3-1.4a3,3,0,0,0-.44-1.8,1.47,1.47,0,0,0-1.23-.58,1.7,1.7,0,0,0-.82.23,1.75,1.75,0,0,0-.66.62l0.2,0.19a1.85,1.85,0,0,1,.56-0.56,1.32,1.32,0,0,1,.72-0.21,1.19,1.19,0,0,1,1,.5,2.67,2.67,0,0,1,.38,1.59v0.51h-0.74a4.36,4.36,0,0,0-.75.07,2.07,2.07,0,0,0-.78.31,1.89,1.89,0,0,0-.61.65A2.19,2.19,0,0,0,268,428a2.43,2.43,0,0,0,.13.83,1.72,1.72,0,0,0,.34.58,1.33,1.33,0,0,0,.48.34,1.43,1.43,0,0,0,1.55-.31,2.49,2.49,0,0,0,.62-1.3h0c0,0.1,0,.22,0,0.35s0,0.28,0,.42,0,0.29,0,.43,0,0.25,0,.34h0.28c0-.18,0-0.41-0.05-0.69s0-.54,0-0.79v-2.85Zm-7.28.83v-6.66H263.8v10.15h0.29v-3.42h0l2.78,3.42h0.36l-2.83-3.46,2.64-3h-0.36l-2.59,3h0Zm-2.58-3h-0.29v6.49h0.29v-6.49Zm0.06-2.11a0.39,0.39,0,0,0,0-.52,0.28,0.28,0,0,0-.43,0,0.35,0.35,0,0,0-.09.25,0.37,0.37,0,0,0,.09.27,0.3,0.3,0,0,0,.21.09,0.3,0.3,0,0,0,.21-0.09m-5.86,3.75v-0.38c0-.15,0-0.3,0-0.46s0-.31,0-0.45,0-.26,0-0.35h-0.3c0,0.09,0,.21,0,0.35s0,0.29,0,.45,0,0.31,0,.46,0,0.28,0,.38v4.85h0.3v-3.76a4.21,4.21,0,0,1,.11-0.92,3.27,3.27,0,0,1,.32-0.87,2,2,0,0,1,.54-0.64,1.2,1.2,0,0,1,.75-0.25,1,1,0,0,1,.65.2,1.32,1.32,0,0,1,.38.52,2.42,2.42,0,0,1,.17.69,6.79,6.79,0,0,1,0,.72v4.3H259v-4.3a7.34,7.34,0,0,0,0-.8,2.57,2.57,0,0,0-.21-0.78,1.55,1.55,0,0,0-.46-0.59,1.32,1.32,0,0,0-.83-0.23,1.42,1.42,0,0,0-1.12.5,2.71,2.71,0,0,0-.59,1.35h0Zm-2.9,3.21v0.38c0,0.15,0,.3,0,0.46s0,0.31,0,.45,0,0.26,0,.35h0.3c0-.09,0-0.21,0-0.35s0-.29,0-0.45,0-.31,0-0.46,0-.28,0-0.38v-4.85h-0.3v3.76a4.15,4.15,0,0,1-.11.92,3.3,3.3,0,0,1-.32.87,2,2,0,0,1-.54.64,1.19,1.19,0,0,1-.75.25,1,1,0,0,1-.65-0.2,1.32,1.32,0,0,1-.38-0.51,2.36,2.36,0,0,1-.17-0.69,7,7,0,0,1,0-.73v-4.3h-0.3v4.3a7.34,7.34,0,0,0,0,.8,2.57,2.57,0,0,0,.21.78,1.54,1.54,0,0,0,.46.59,1.31,1.31,0,0,0,.83.24,1.42,1.42,0,0,0,1.11-.5,2.7,2.7,0,0,0,.59-1.35h0Zm-7.63-4.92a1.71,1.71,0,0,0-.51.4,2.24,2.24,0,0,0-.37.6,2.89,2.89,0,0,0-.2.74h0a6.56,6.56,0,0,0-.09-0.74,1.73,1.73,0,0,0-.23-0.6,1.18,1.18,0,0,0-.42-0.4,1.31,1.31,0,0,0-.65-0.15,1.42,1.42,0,0,0-1.11.5,2.71,2.71,0,0,0-.59,1.35h0v-0.38c0-.15,0-0.3,0-0.46s0-.31,0-0.45,0-.26,0-0.35h-0.3c0,0.09,0,.21,0,0.35s0,0.29,0,.45,0,0.31,0,.46,0,0.28,0,.38v4.85H241v-3.76a4.21,4.21,0,0,1,.11-0.92,3.27,3.27,0,0,1,.32-0.87,2,2,0,0,1,.54-0.64,1.2,1.2,0,0,1,.75-0.25,1,1,0,0,1,.62.19,1.21,1.21,0,0,1,.36.5,2.61,2.61,0,0,1,.16.69,7.09,7.09,0,0,1,0,.74v4.3h0.3v-3.76a4.45,4.45,0,0,1,.1-0.92,3.42,3.42,0,0,1,.3-0.87,1.93,1.93,0,0,1,.52-0.64,1.17,1.17,0,0,1,.75-0.25,1,1,0,0,1,.65.2,1.32,1.32,0,0,1,.38.52,2.42,2.42,0,0,1,.18.69,6.78,6.78,0,0,1,0,.72v4.3h0.3v-4.3a7.34,7.34,0,0,0,0-.8,2.6,2.6,0,0,0-.21-0.78,1.55,1.55,0,0,0-.46-0.59,1.32,1.32,0,0,0-.83-0.23,1.39,1.39,0,0,0-.64.15m-9,0a1.71,1.71,0,0,0-.51.4,2.24,2.24,0,0,0-.37.6,2.89,2.89,0,0,0-.2.74h0a6.13,6.13,0,0,0-.09-0.74,1.73,1.73,0,0,0-.23-0.6,1.18,1.18,0,0,0-.42-0.4,1.32,1.32,0,0,0-.65-0.15,1.42,1.42,0,0,0-1.11.5,2.71,2.71,0,0,0-.59,1.35h0v-0.38c0-.15,0-0.3,0-0.46s0-.31,0-0.45,0-.26,0-0.35h-0.3c0,0.09,0,.21,0,0.35s0,0.29,0,.45,0,0.31,0,.46,0,0.28,0,.38v4.85H232v-3.76a4.15,4.15,0,0,1,.11-0.92,3.27,3.27,0,0,1,.32-0.87,2,2,0,0,1,.54-0.64,1.2,1.2,0,0,1,.75-0.25,1,1,0,0,1,.62.19,1.21,1.21,0,0,1,.36.5,2.65,2.65,0,0,1,.16.69,7.09,7.09,0,0,1,0,.74v4.3h0.3v-3.76a4.45,4.45,0,0,1,.1-0.92,3.42,3.42,0,0,1,.3-0.87,1.92,1.92,0,0,1,.52-0.64,1.17,1.17,0,0,1,.75-0.25,1,1,0,0,1,.65.2,1.32,1.32,0,0,1,.38.52,2.42,2.42,0,0,1,.18.69,6.78,6.78,0,0,1,0,.72v4.3h0.3v-4.3a7.34,7.34,0,0,0,0-.8,2.57,2.57,0,0,0-.21-0.78,1.54,1.54,0,0,0-.46-0.59,1.32,1.32,0,0,0-.83-0.23,1.39,1.39,0,0,0-.64.15m-6.79,4.56a3.66,3.66,0,0,1-.33,1,2,2,0,0,1-.54.68,1.2,1.2,0,0,1-.75.25,1.22,1.22,0,0,1-.76-0.25,1.91,1.91,0,0,1-.54-0.68,3.83,3.83,0,0,1-.32-1,6.83,6.83,0,0,1-.11-1.25,7,7,0,0,1,.11-1.27,3.84,3.84,0,0,1,.32-1,1.91,1.91,0,0,1,.54-0.68,1.22,1.22,0,0,1,.76-0.25,1.2,1.2,0,0,1,.74.25,1.89,1.89,0,0,1,.54.68,4,4,0,0,1,.33,1,6.65,6.65,0,0,1,.11,1.27,6.83,6.83,0,0,1-.11,1.25M229.7,425a4,4,0,0,0-.4-1.09,2.09,2.09,0,0,0-.64-0.72,1.48,1.48,0,0,0-.85-0.26,1.53,1.53,0,0,0-.87.26,2,2,0,0,0-.64.72,4,4,0,0,0-.39,1.09,6.68,6.68,0,0,0-.14,1.4,6.43,6.43,0,0,0,.14,1.39,3.9,3.9,0,0,0,.4,1.1,2.11,2.11,0,0,0,.64.71,1.53,1.53,0,0,0,1.69,0,2.11,2.11,0,0,0,.64-0.71,3.87,3.87,0,0,0,.4-1.1,7,7,0,0,0,0-2.79M222,426.18v-6.66h-0.3v10.15H222v-3.42h0l2.78,3.42h0.36l-2.83-3.46,2.65-3h-0.36l-2.59,3h0Z" transform="translate(-200.96 -394.08)"/><path class="cls-5" d="M312.55,402.5a10.27,10.27,0,0,1,.2-1.89,7.9,7.9,0,0,1,.67-2,5.15,5.15,0,0,1,1.19-1.59,2.6,2.6,0,0,1,1.8-.65,2.82,2.82,0,0,1,2.68,1.68,9.89,9.89,0,0,1,.86,4.46h-7.4Zm9.84,2v-1.33a18.39,18.39,0,0,0-.31-3.48,9.2,9.2,0,0,0-1-2.85,5.37,5.37,0,0,0-1.83-1.92,5.51,5.51,0,0,0-5.42,0,6.21,6.21,0,0,0-2,2,10.21,10.21,0,0,0-1.27,3.11,16.69,16.69,0,0,0-.44,4,12.9,12.9,0,0,0,1.7,7.14,5.4,5.4,0,0,0,4.77,2.59,5,5,0,0,0,3.35-1.13,7.11,7.11,0,0,0,2-2.79L320,408.79a5.59,5.59,0,0,1-1.26,2,2.92,2.92,0,0,1-2.16.81,3.06,3.06,0,0,1-1.8-.54,4.15,4.15,0,0,1-1.26-1.48,8.15,8.15,0,0,1-.76-2.22,14,14,0,0,1-.26-2.79h9.88ZM307,396.44a5.43,5.43,0,0,0-1.83-1.57,5.56,5.56,0,0,0-2.68-.61,5,5,0,0,0-2,.39,5.24,5.24,0,0,0-1.61,1.07,4.74,4.74,0,0,0-1.09,1.65,5.59,5.59,0,0,0-.39,2.11,5.72,5.72,0,0,0,.31,2,4.6,4.6,0,0,0,.83,1.42,4.5,4.5,0,0,0,1.16,1,8.87,8.87,0,0,0,1.35.63q0.67,0.26,1.28.56a5.23,5.23,0,0,1,1.09.7,3.09,3.09,0,0,1,.78,1,3.42,3.42,0,0,1,.3,1.5,3.75,3.75,0,0,1-.8,2.5,2.6,2.6,0,0,1-2.09.94,3.48,3.48,0,0,1-2.05-.61,5.69,5.69,0,0,1-1.5-1.57l-1.48,1.59a6.33,6.33,0,0,0,2.15,1.94,5.74,5.74,0,0,0,2.85.72,5.06,5.06,0,0,0,3.79-1.5,5.76,5.76,0,0,0,1.46-4.2,5.33,5.33,0,0,0-.37-2.09,5.28,5.28,0,0,0-.94-1.5,5.42,5.42,0,0,0-1.31-1.05,11.77,11.77,0,0,0-1.48-.72,7,7,0,0,1-2.22-1.22,2.75,2.75,0,0,1-.74-2.15,3.33,3.33,0,0,1,.76-2.28,2.46,2.46,0,0,1,1.94-.87,3.26,3.26,0,0,1,1.83.5,4,4,0,0,1,1.24,1.31Zm-22.72,6.07a10.19,10.19,0,0,1,.21-1.89,7.86,7.86,0,0,1,.67-2,5.16,5.16,0,0,1,1.19-1.59,2.6,2.6,0,0,1,1.8-.65,2.82,2.82,0,0,1,2.68,1.68,9.89,9.89,0,0,1,.86,4.46h-7.4Zm9.84,2v-1.33a18.31,18.31,0,0,0-.31-3.48,9.18,9.18,0,0,0-1-2.85A5.38,5.38,0,0,0,291,395a5.51,5.51,0,0,0-5.42,0,6.2,6.2,0,0,0-2,2,10.21,10.21,0,0,0-1.27,3.11,16.74,16.74,0,0,0-.44,4,12.9,12.9,0,0,0,1.7,7.14,5.4,5.4,0,0,0,4.77,2.59,5,5,0,0,0,3.35-1.13,7.11,7.11,0,0,0,2-2.79l-1.85-1.07a5.58,5.58,0,0,1-1.26,2,2.92,2.92,0,0,1-2.16.81,3.06,3.06,0,0,1-1.8-.54,4.16,4.16,0,0,1-1.26-1.48,8.22,8.22,0,0,1-.76-2.22,14,14,0,0,1-.26-2.79h9.88Zm-16.91-2.69h-2.44V413.2h2.44V401.85ZM277.19,395a1.57,1.57,0,0,0-2.33,0,2,2,0,0,0,0,2.53,1.52,1.52,0,0,0,1.17.5,1.54,1.54,0,0,0,1.15-.5,1.77,1.77,0,0,0,.48-1.28,1.83,1.83,0,0,0-.46-1.26m-6.34,18.23v-2.11h-7.66l7.62-14.17v-2.07h-9.62V397h7.07l-7.66,14.1v2.15h10.25Z" transform="translate(-200.96 -394.08)"/><path class="cls-6" d="M228.69,394.33a2,2,0,0,0-.44,0,3.36,3.36,0,0,0-2.44,1.07,6.93,6.93,0,0,0-1.59,3.48h-0.07q0-1.18,0-2.24T224,394.85h-2.37c0,0.2,0,.47.06,0.83s0,0.75,0,1.19,0,0.88,0,1.33,0,0.88,0,1.28V413.2h2.44v-9.36a13.69,13.69,0,0,1,.24-2.53,9.14,9.14,0,0,1,.72-2.28,5,5,0,0,1,1.2-1.63,2.44,2.44,0,0,1,1.65-.63l0.31,0,0.28,0.06Z" transform="translate(-200.96 -394.08)"/><path class="cls-3" d="M216.39,403.39a8.24,8.24,0,0,1-.44,2.72,6.6,6.6,0,0,1-1.28,2.22,5.82,5.82,0,0,1-2.05,1.48,6.83,6.83,0,0,1-2.78.54,6.54,6.54,0,0,1-4.77-2,6.63,6.63,0,0,1-1.39-2.2,7.86,7.86,0,0,1,0-5.51,6.85,6.85,0,0,1,1.39-2.22,6.4,6.4,0,0,1,2.11-1.48,6.57,6.57,0,0,1,2.66-.54,6.64,6.64,0,0,1,2.78.56,6,6,0,0,1,2.05,1.5,6.6,6.6,0,0,1,1.28,2.22,8.25,8.25,0,0,1,.44,2.72m2,3.59a10.28,10.28,0,0,0,0-7.18,8.69,8.69,0,0,0-1.81-2.89,8.4,8.4,0,0,0-2.81-1.92,9.3,9.3,0,0,0-3.68-.7,8.29,8.29,0,0,0-3.64.87,6.87,6.87,0,0,0-2.87,2.57h-0.11v-3H201v35.2h2.51v-20.8h0.11a7,7,0,0,0,2.87,2.5,8.27,8.27,0,0,0,3.64.87,9.3,9.3,0,0,0,3.68-.7,8.39,8.39,0,0,0,2.81-1.92,8.69,8.69,0,0,0,1.81-2.89" transform="translate(-200.96 -394.08)"/></g></svg>